# xmcd CD database file
#
# Track frame offsets:
#	150
#	29685
#	68426
#	95190
#	120690
#	169398
#	201525
#	208014
#	220750
#	270028
#	299279
#
# Disc length: 4274 seconds
#
# Revision: 1
# Processed by: cddbd v1.5.2PL0 Copyright (c) Steve Scherf et al.
# Submitted via: CDex 1.70beta2
#
DISCID=ac10b00b
DTITLE=B.B. KING - Live At Jazz Summit In Wiesen, Austria cd1
DYEAR=1984
DGENRE=Blues
TTITLE0=Introduction Jam - Every Day I Have The Blues
TTITLE1=Paying The Cost To Be The Boss
TTITLE2=Sweet Little Angel
TTITLE3=Instrumental
TTITLE4=Rock Me Baby
TTITLE5=Instrumental
TTITLE6=Caledonia Part I
TTITLE7=Caledonia Part II
TTITLE8=When It All Comes Down(I'll Still Be Around)
TTITLE9=Instrumental Jam
TTITLE10=I Just Can't Leave Your Love Alone
EXTD=YEAR: 1984
EXTT0=
EXTT1=
EXTT2=
EXTT3=
EXTT4=
EXTT5=
EXTT6=
EXTT7=
EXTT8=
EXTT9=
EXTT10=
PLAYORDER=
